/* XPM */
static char * scratch_xpm[] = {
"32 32 265 2",
"  	c None",
". 	c #393736",
"+ 	c #5D3E1D",
"@ 	c #503212",
"# 	c #46321E",
"$ 	c #A15402",
"% 	c #5D452E",
"& 	c #F47B00",
"* 	c #984E03",
"= 	c #FB7900",
"- 	c #E97402",
"; 	c #71400B",
"> 	c #8B5318",
", 	c #EC7400",
"' 	c #FF8300",
") 	c #D26604",
"! 	c #DA6D00",
"~ 	c #FF8100",
"{ 	c #FF8400",
"] 	c #9A520A",
"^ 	c #3E2F26",
"/ 	c #714418",
"( 	c #904F09",
"_ 	c #AC5800",
": 	c #B65C00",
"< 	c #AE5900",
"[ 	c #9B5203",
"} 	c #A75100",
"| 	c #FF7E00",
"1 	c #E37601",
"2 	c #1F1710",
"3 	c #B75E00",
"4 	c #FF7F00",
"5 	c #FF8200",
"6 	c #E27300",
"7 	c #F77700",
"8 	c #FE7E00",
"9 	c #FF8000",
"0 	c #77400E",
"a 	c #995005",
"b 	c #FE7F00",
"c 	c #B25E0F",
"d 	c #877258",
"e 	c #A4662D",
"f 	c #6A3C0A",
"g 	c #854B0E",
"h 	c #FF8500",
"i 	c #C85C00",
"j 	c #8E500D",
"k 	c #AB5100",
"l 	c #FE8000",
"m 	c #E47200",
"n 	c #C1BEBD",
"o 	c #FFFFFF",
"p 	c #F4F7FB",
"q 	c #B6ADA4",
"r 	c #663504",
"s 	c #774514",
"t 	c #B45700",
"u 	c #A2ACB7",
"v 	c #FCFFFF",
"w 	c #D0D9E5",
"x 	c #82613B",
"y 	c #F17400",
"z 	c #E16E06",
"A 	c #DEDCD8",
"B 	c #FFFFFE",
"C 	c #FEFEFE",
"D 	c #967C60",
"E 	c #683604",
"F 	c #D46701",
"G 	c #F87B00",
"H 	c #92775F",
"I 	c #F9FCFF",
"J 	c #8A6B50",
"K 	c #F57A00",
"L 	c #E67500",
"M 	c #BCB5B1",
"N 	c #E9F1FA",
"O 	c #7A4002",
"P 	c #884706",
"Q 	c #FF8800",
"R 	c #F47900",
"S 	c #9E8877",
"T 	c #DFE0E1",
"U 	c #D86A0A",
"V 	c #87582C",
"W 	c #FBFFFF",
"X 	c #7B797A",
"Y 	c #F5F6F7",
"Z 	c #8C643F",
"` 	c #4D2F14",
" .	c #E07202",
"..	c #FF7D00",
"+.	c #86582C",
"@.	c #D9D9D9",
"#.	c #C4C3C3",
"$.	c #F0F3F6",
"%.	c #AB6222",
"&.	c #FF8600",
"*.	c #F67400",
"=.	c #7C705F",
"-.	c #BAB8B8",
";.	c #8C6F52",
">.	c #6E3600",
",.	c #555353",
"'.	c #66401F",
").	c #F77E00",
"!.	c #CD5D00",
"~.	c #A0A3A9",
"{.	c #BFBDBE",
"].	c #9C9A9A",
"^.	c #F3F6F9",
"/.	c #AA611E",
"(.	c #EE7900",
"_.	c #E27500",
":.	c #E37900",
"<.	c #DB6B04",
"[.	c #88837F",
"}.	c #D7D5D5",
"|.	c #A3A2A2",
"1.	c #B7B7BA",
"2.	c #D5C9B8",
"3.	c #676566",
"4.	c #322F2F",
"5.	c #3C3D4A",
"6.	c #834B14",
"7.	c #C3600B",
"8.	c #A8A6A6",
"9.	c #B5B4B6",
"0.	c #D8C6B2",
"a.	c #FFBF6C",
"b.	c #512F11",
"c.	c #38211A",
"d.	c #3E261D",
"e.	c #3B2822",
"f.	c #DEDDDD",
"g.	c #E0DFE0",
"h.	c #E5E5E5",
"i.	c #FFFEFE",
"j.	c #9D9B9B",
"k.	c #120D0F",
"l.	c #3C3A3D",
"m.	c #403E3E",
"n.	c #4E2B08",
"o.	c #F77D00",
"p.	c #FE7C00",
"q.	c #FF911B",
"r.	c #C38E52",
"s.	c #838389",
"t.	c #888486",
"u.	c #ABA9AA",
"v.	c #DDDDDF",
"w.	c #493F3E",
"x.	c #34201C",
"y.	c #6F6968",
"z.	c #C7C6C6",
"A.	c #7B7979",
"B.	c #7E450F",
"C.	c #FFBD6D",
"D.	c #FEFAF2",
"E.	c #BCBBBB",
"F.	c #F8F8F8",
"G.	c #F8F9F9",
"H.	c #DCDBDB",
"I.	c #DCDCDC",
"J.	c #090808",
"K.	c #3A3737",
"L.	c #343133",
"M.	c #3C3A3B",
"N.	c #3F2614",
"O.	c #F47D00",
"P.	c #FF850E",
"Q.	c #FFF3E3",
"R.	c #D0CFCF",
"S.	c #7D797B",
"T.	c #8E8C8C",
"U.	c #8F8F8F",
"V.	c #C0BFBF",
"W.	c #E3E2E3",
"X.	c #EEEEEE",
"Y.	c #FBFBFB",
"Z.	c #BFBDBD",
"`.	c #7F7D7D",
" +	c #191718",
".+	c #E67103",
"++	c #FF840E",
"@+	c #FFF2DF",
"#+	c #AFAEAE",
"$+	c #CDCDCD",
"%+	c #F5F5F5",
"&+	c #E5E4E4",
"*+	c #CCCBCB",
"=+	c #A19EA0",
"-+	c #8A8888",
";+	c #8A8889",
">+	c #9B9B9B",
",+	c #C1C0C1",
"'+	c #676565",
")+	c #080808",
"!+	c #5A3813",
"~+	c #FC8100",
"{+	c #FFDEB2",
"]+	c #D3D2D2",
"^+	c #A3A0A1",
"/+	c #BFBCBC",
"(+	c #878585",
"_+	c #CAC9CA",
":+	c #000000",
"<+	c #5F340C",
"[+	c #FF8A05",
"}+	c #FFFCF5",
"|+	c #989596",
"1+	c #DDDDDD",
"2+	c #9E9C9C",
"3+	c #A5A4A4",
"4+	c #E1DEDC",
"5+	c #2E2C2C",
"6+	c #65390A",
"7+	c #EB7702",
"8+	c #FF940F",
"9+	c #FEEFD9",
"0+	c #FDFDFD",
"a+	c #929090",
"b+	c #9D9B9C",
"c+	c #D5D4D5",
"d+	c #E0DFDF",
"e+	c #C7C4C5",
"f+	c #878586",
"g+	c #C9C8C8",
"h+	c #F8F7F7",
"i+	c #B8B2AE",
"j+	c #1B1716",
"k+	c #261C14",
"l+	c #874D0F",
"m+	c #F87700",
"n+	c #FF8C0D",
"o+	c #FFC66D",
"p+	c #EDEDED",
"q+	c #E3E3E3",
"r+	c #F9F9F9",
"s+	c #A1A0A0",
"t+	c #464242",
"u+	c #070606",
"v+	c #00020E",
"w+	c #151518",
"x+	c #663905",
"y+	c #B55200",
"z+	c #D97402",
"A+	c #E1B878",
"B+	c #E4DFD5",
"C+	c #E6E5E6",
"D+	c #E1E0E0",
"E+	c #C7C6C7",
"F+	c #9C9A9B",
"G+	c #585658",
"H+	c #1C191A",
"I+	c #010407",
"J+	c #0A0602",
"K+	c #140901",
"L+	c #1B150F",
"M+	c #232222",
"N+	c #131213",
"O+	c #0F0E0E",
"P+	c #050404",
"                                                                ",
"                                                                ",
"                                                                ",
"                                                                ",
"                                                                ",
"          .                           + @                       ",
"          # $                       % & *                       ",
"            = - ;                 > , ' )                       ",
"            ! ~ { ] ^ / ( _ : < [ } ~ | 1 2                     ",
"            3 ~ 4 5 6 7 ~ ~ ~ ~ ~ 4 8 { 9 0                     ",
"            a ~ 4 8 ~ 9 ~ 4 | 4 4 | b c d e f                   ",
"            g 9 8 h i j k 4 l | 4 | m n o p q r                 ",
"            s 9 9 t u v w x y 9 4 4 z A B C o D E               ",
"            F 9 G H o o o I J K | | L M o C o N O               ",
"          P Q 8 R S o C o o T U 9 | 8 V W o X Y Z `             ",
"           .4 | ..+.o o @.#.$.%.&.| 4 *.=.o -.o ;.>.            ",
",.      '.).| 4 ~ !.~.o {.].^./.' (._.:.<.[.}.|.1.2.3.          ",
"    4.5.6.9 | 4 b ' 7.8.o o 9.0.a.b.c.d.e.f.g.h.o o i.j.k.l.m.  ",
"        n.o.| | | p.q.r.s.t.u.o o v.w.x.y.C o o o o C z.A.      ",
"        B.9 | 4 ..C.D.o i.o E.F.o o G.H.F.o o o o o C o I.J.    ",
"  K.L.M.N.O.| 4 P.Q.i.o o R.S.T.U.V.W.X.Y.o o o C o o Z.`. +    ",
"          .+l 4 ++@+i.o o #+$+o %+&+*+=+-+;+>+,+o o o o '+)+    ",
"          !+~+4 | {+o i.o ]+^+o C C o o o o /+(+o C o _+J.:+    ",
"            <+~+8 [+}+o o o |+1+o o o o o 2+3+o C o 4+5+:+      ",
"              6+7+| 8+9+o C 0+a+b+c+d+e+f+g+o o h+i+j+:+        ",
"                k+l+m+n+o+o o o p+d+@.q+Y.o r+s+t+u+:+          ",
"                  v+w+x+y+z+A+B+C+D+1+E+F+G+H+:+:+:+            ",
"                        I+J+K+L+M+N+O+P+:+:+:+                  ",
"                                                                ",
"                                                                ",
"                                                                ",
"                                                                "};
